<?xml version="1.0" encoding="UTF-8"?>
<svg width="120px" height="120px" viewBox="0 0 120 120" version="1.1" xmlns="http://www.w3.org/2000/svg" xmlns:xlink="http://www.w3.org/1999/xlink">
    <!-- Generator: Sketch 41.2 (35397) - http://www.bohemiancoding.com/sketch -->
    <title>Group 7</title>
    <desc>Created with Sketch.</desc>
    <defs>
        <radialGradient cx="50%" cy="50%" fx="50%" fy="50%" r="66.7615602%" id="radialGradient-1">
            <stop stop-color="#80C783" offset="0%"></stop>
            <stop stop-color="#80C783" offset="43.877551%"></stop>
            <stop stop-color="#2296F3" offset="60.2040816%"></stop>
            <stop stop-color="#3F51B5" offset="100%"></stop>
        </radialGradient>
    </defs>
    <g id="design" stroke="none" stroke-width="1" fill="none" fill-rule="evenodd">
        <g id="2---Авторизация" transform="translate(-660.000000, -189.000000)">
            <g id="Group-7" transform="translate(660.000000, 189.000000)">
                <circle id="Oval" fill="#FFFFFF" cx="60" cy="60" r="60"></circle>
                <path d="M27.5063383,33.24 C32.5998803,22.4495745 43.5764774,15 56.2776832,15 C73.8750049,15 88.16206,29.3004255 88.16206,46.9148298 C88.16206,56.2568298 84.1427556,64.6667234 77.7132078,70.4834043 C79.7197991,66.3535532 80.8261759,61.709234 80.8261759,56.8084468 C80.8261759,39.1940426 66.5391846,24.893617 48.9418629,24.893617 C40.6775788,24.893617 33.1434397,28.0474468 27.5063383,33.24 Z M32.7200194,89.7875745 C22.2250629,84.1254255 15.3734339,72.7595106 16.0453585,60.063766 C16.9763093,42.4742553 31.9988658,28.95 49.5715093,29.8819149 C58.8914107,30.3759574 67.0688426,34.8382979 72.531602,41.5729787 C68.5176542,39.3485106 63.9428658,37.997234 59.0536368,37.7380851 C41.4809933,36.8061702 26.4584368,50.3301702 25.5274861,67.9198085 C25.0902919,76.1805319 27.8383151,83.8782766 32.7200194,89.7875745 Z M92.9236252,84.4379362 C88.6422339,95.5757234 78.246947,103.818702 65.5805585,104.76 C48.031573,106.06417 32.7262049,92.861617 31.4233585,75.2956596 C30.7323035,65.9793191 34.1179441,57.2946383 40.0999035,51.0174255 C38.404118,55.2847021 37.6447035,59.9982128 38.0072252,64.8855319 C39.3101354,82.4514894 54.6154397,95.6540426 72.1644252,94.3498723 C80.4059441,93.7374255 87.6863499,90.0336383 92.9236252,84.4379362 Z M83.8073354,26.9897872 C94.8047846,31.5989362 102.732437,42.2406383 103.302524,54.9414894 C104.092611,72.5380213 90.4615383,87.4660851 72.881689,88.2566809 C63.558089,88.6759787 54.984402,85.0349362 48.8905933,78.8664255 C53.1024136,80.6877447 57.787202,81.5851915 62.6783441,81.365234 C80.258002,80.5746383 93.8890745,65.6465745 93.0989875,48.0500426 C92.7284948,39.7857447 89.2422919,32.393617 83.8073354,26.9897872 Z" id="Combined-Shape" fill="url(#radialGradient-1)"></path>
            </g>
        </g>
    </g>
</svg>