<?xml version="1.0" encoding="UTF-8"?>
<svg width="47px" height="48px" viewBox="0 0 47 48" version="1.1" xmlns="http://www.w3.org/2000/svg" xmlns:xlink="http://www.w3.org/1999/xlink">
    <!-- Generator: Sketch 41.2 (35397) - http://www.bohemiancoding.com/sketch -->
    <title>Combined Shape</title>
    <desc>Created with Sketch.</desc>
    <defs>
        <radialGradient cx="50%" cy="50%" fx="50%" fy="50%" r="66.7615602%" id="radialGradient-1">
            <stop stop-color="#80C783" offset="0%"></stop>
            <stop stop-color="#80C783" offset="43.877551%"></stop>
            <stop stop-color="#2296F3" offset="60.2040816%"></stop>
            <stop stop-color="#3F51B5" offset="100%"></stop>
        </radialGradient>
    </defs>
    <g id="design" stroke="none" stroke-width="1" fill="none" fill-rule="evenodd">
        <g id="3.1---Рабочие-пространства" transform="translate(-20.000000, -6.000000)" fill="url(#radialGradient-1)">
            <path d="M26.1922095,15.744362 C28.9333317,9.97978896 34.8404576,6 41.6756927,6 C51.1458039,6 58.8344739,13.6397217 58.8344739,23.0498715 C58.8344739,28.0406516 56.6714596,32.5334723 53.2113573,35.6409199 C54.2912173,33.434628 54.886621,30.9534916 54.886621,28.3353422 C54.886621,18.9251924 47.1979853,11.2854707 37.7278741,11.2854707 C33.2803968,11.2854707 29.2258517,12.9703424 26.1922095,15.744362 Z M28.9979853,45.9537939 C23.3500574,42.928902 19.6628095,36.856885 20.02441,30.0744326 C20.5254071,20.6775817 28.6098919,13.4525137 38.0667224,13.950371 C43.0822869,14.2143035 47.4830242,16.5982213 50.4228431,20.1960924 C48.2627114,19.007714 45.8007597,18.285821 43.1695899,18.1473757 C33.7127595,17.6495185 25.6282746,24.8744501 25.1272775,34.2713691 C24.8919987,38.6844985 26.3708649,42.7968675 28.9979853,45.9537939 Z M61.3969407,43.0958547 C59.0928826,49.0459989 53.4985925,53.4496485 46.6820946,53.9525184 C37.2379958,54.6492458 29.0013141,47.5960408 28.300179,38.2117728 C27.9282833,33.2347008 29.7502874,28.5950805 32.9695171,25.2416027 C32.0569193,27.5213115 31.6482356,30.0394121 31.8433289,32.6503664 C32.5444984,42.0346344 40.7811458,49.0878394 50.2252445,48.391112 C54.6604706,48.0639244 58.5784675,46.0852487 61.3969407,43.0958547 Z M56.490951,12.4053085 C62.4092987,14.8676559 66.6756154,20.5527764 66.9824113,27.3379568 C67.4076017,36.7385587 60.0719529,44.7135838 50.6112446,45.1359441 C45.5936896,45.3599457 40.9797052,43.4147902 37.7002831,40.1193844 C39.9669011,41.0923885 42.4880499,41.5718318 45.1202493,41.4543239 C54.5808546,41.0319636 61.9165034,33.0569385 61.4913131,23.6563366 C61.29193,19.2412977 59.4158076,15.2921985 56.490951,12.4053085 Z" id="Combined-Shape"></path>
        </g>
    </g>
</svg>